<svg width="39" height="32" viewBox="0 0 39 32" fill="none" xmlns="http://www.w3.org/2000/svg">
<path d="M4.12492 31.8333C3.18534 31.8333 2.38128 31.5235 1.71275 30.9039C1.04309 30.2832 0.708252 29.5375 0.708252 28.6666V9.66663C0.708252 8.79579 1.04309 8.05057 1.71275 7.43096C2.38128 6.81029 3.18534 6.49996 4.12492 6.49996H9.50617L12.6666 3.33329H22.9166V9.66663H28.0416V14.4166H34.8749V28.6666C34.8749 29.5375 34.5407 30.2832 33.8721 30.9039C33.2025 31.5235 32.3978 31.8333 31.4583 31.8333H4.12492ZM17.7916 26.2916C19.927 26.2916 21.7424 25.5992 23.2378 24.2143C24.732 22.8283 25.4791 21.1458 25.4791 19.1666C25.4791 17.1875 24.732 15.5049 23.2378 14.119C21.7424 12.7341 19.927 12.0416 17.7916 12.0416C15.6562 12.0416 13.8408 12.7341 12.3454 14.119C10.8512 15.5049 10.1041 17.1875 10.1041 19.1666C10.1041 21.1458 10.8512 22.8283 12.3454 24.2143C13.8408 25.5992 15.6562 26.2916 17.7916 26.2916ZM17.7916 23.125C16.5958 23.125 15.585 22.7423 14.7593 21.977C13.9336 21.2118 13.5208 20.275 13.5208 19.1666C13.5208 18.0583 13.9336 17.1215 14.7593 16.3562C15.585 15.5909 16.5958 15.2083 17.7916 15.2083C18.9874 15.2083 19.9982 15.5909 20.8239 16.3562C21.6496 17.1215 22.0624 18.0583 22.0624 19.1666C22.0624 20.275 21.6496 21.2118 20.8239 21.977C19.9982 22.7423 18.9874 23.125 17.7916 23.125ZM31.4583 9.66663V6.49996H28.0416V3.33329H31.4583V0.166626H34.8749V3.33329H38.2916V6.49996H34.8749V9.66663H31.4583Z" fill="#323945"/>
</svg>
