<svg width="41" height="38" viewBox="0 0 41 38" fill="none" xmlns="http://www.w3.org/2000/svg">
<path d="M31.6818 29.5556V23.2222H26.0909V19H31.6818V12.6667H35.4091V19H41V23.2222H35.4091V29.5556H31.6818ZM18.6364 38L12.7193 31.9833C10.483 29.6963 8.56527 27.6556 6.96627 25.8611C5.36603 24.0667 4.04595 22.3778 3.00605 20.7944C1.96489 19.2111 1.20391 17.6806 0.723091 16.2028C0.24103 14.725 0 13.1769 0 11.5583C0 8.25093 0.978409 5.49733 2.93523 3.29756C4.89205 1.09918 7.3303 0 10.25 0C11.8652 0 13.4027 0.377889 14.8625 1.13367C16.3223 1.89085 17.5803 2.97315 18.6364 4.38056C19.6924 2.97315 20.9504 1.89085 22.4102 1.13367C23.8701 0.377889 25.4076 0 27.0227 0C29.6629 0 31.8756 0.905667 33.661 2.717C35.4476 4.52974 36.5583 6.65 36.9932 9.07778C36.4341 8.83148 35.875 8.64641 35.3159 8.52256C34.7568 8.40011 34.2133 8.33889 33.6852 8.33889C30.5481 8.33889 27.8769 9.57881 25.6716 12.0587C23.4663 14.5399 22.3636 17.5574 22.3636 21.1111C22.3636 22.9407 22.6898 24.6733 23.342 26.3087C23.9943 27.9455 24.9106 29.3444 26.0909 30.5056C25.5008 31.1037 24.7317 31.8693 23.7837 32.8024C22.837 33.7341 22.022 34.5519 21.3386 35.2556L18.6364 38Z" fill="#512C1F"/>
</svg>
