<svg width="41" height="38" viewBox="0 0 41 38" fill="none" xmlns="http://www.w3.org/2000/svg">
<path d="M41 17.0916V34.9165C40.9985 35.4729 40.8312 36.0188 40.5156 36.4968C40.2 36.9748 39.7478 37.3675 39.2063 37.6336C38.7097 37.8807 38.1504 38.0068 37.5833 37.9997H27.3333C26.8803 37.9997 26.4457 37.8373 26.1254 37.5482C25.805 37.2591 25.625 36.867 25.625 36.4581V27.2084C25.625 26.7996 25.445 26.4075 25.1247 26.1184C24.8043 25.8293 24.3698 25.6668 23.9167 25.6668H17.0834C16.6303 25.6668 16.1958 25.8293 15.8754 26.1184C15.555 26.4075 15.375 26.7996 15.375 27.2084V36.4581C15.375 36.867 15.195 37.2591 14.8747 37.5482C14.5543 37.8373 14.1198 37.9997 13.6667 37.9997H3.41671C2.93202 38.0014 2.45256 37.9094 2.01057 37.7299C1.56857 37.5504 1.17428 37.2876 0.854208 36.9591C0.298778 36.3669 -0.00412355 35.6152 4.24065e-05 34.8394V17.0916C0.000193051 16.6638 0.0989947 16.2407 0.290164 15.8493C0.481333 15.4578 0.760687 15.1065 1.11046 14.8177L18.1938 0.808366C18.8236 0.288379 19.6464 0 20.5 0C21.3537 0 22.1764 0.288379 22.8063 0.808366L39.8896 14.8177C40.2394 15.1065 40.5187 15.4578 40.7099 15.8493C40.901 16.2407 40.9999 16.6638 41 17.0916Z" fill="#323945"/>
</svg>
