<svg width="27" height="31" viewBox="0 0 27 31" fill="none" xmlns="http://www.w3.org/2000/svg">
<path d="M20.5 30.5H6.75V11L15.5 0.5L17.0625 2.375C17.2083 2.55 17.3283 2.7875 17.4225 3.0875C17.5158 3.3875 17.5625 3.675 17.5625 3.95V4.475L16.1875 11H24.25C24.9167 11 25.5 11.3 26 11.9C26.5 12.5 26.75 13.2 26.75 14V17C26.75 17.175 26.7292 17.3625 26.6875 17.5625C26.6458 17.7625 26.6042 17.95 26.5625 18.125L22.8125 28.7C22.625 29.2 22.3125 29.625 21.875 29.975C21.4375 30.325 20.9792 30.5 20.5 30.5ZM9.25 27.5H20.5L24.25 17V14H13L14.6875 5.75L9.25 12.275V27.5ZM6.75 11V14H3V27.5H6.75V30.5H0.5V11H6.75Z" fill="#1C1B1F"/>
</svg>
