<svg width="35" height="35" viewBox="0 0 35 35" fill="none" xmlns="http://www.w3.org/2000/svg">
<path d="M31.1667 0.166687H3.83341C2.92726 0.166687 2.05822 0.500317 1.41747 1.09418C0.776717 1.68805 0.416748 2.4935 0.416748 3.33335V31.8334L7.25008 25.5H31.1667C32.0729 25.5 32.9419 25.1664 33.5827 24.5725C34.2234 23.9787 34.5834 23.1732 34.5834 22.3334V3.33335C34.5834 2.4935 34.2234 1.68805 33.5827 1.09418C32.9419 0.500317 32.0729 0.166687 31.1667 0.166687ZM15.7917 35H19.2084V31.8334H15.7917V35ZM8.95842 35H12.3751V31.8334H8.95842V35ZM22.6251 35H26.0417V31.8334H22.6251V35Z" fill="#512C1F"/>
</svg>
