<svg width="35" height="35" viewBox="0 0 35 35" fill="none" xmlns="http://www.w3.org/2000/svg">
<path d="M34.5834 11.0833V25.3333C34.5834 27.075 33.0459 28.5 31.1667 28.5H7.25008L0.416748 34.8333V6.33333C0.416748 4.59167 1.95425 3.16667 3.83341 3.16667H21.0876C20.9167 3.64167 20.9167 4.275 20.9167 4.75C20.9167 9.18333 24.6751 12.6667 29.4584 12.6667C31.3376 12.6667 33.2167 12.0333 34.5834 11.0833ZM24.3334 4.75C24.3334 7.44167 26.5542 9.5 29.4584 9.5C32.3626 9.5 34.5834 7.44167 34.5834 4.75C34.5834 2.05833 32.3626 0 29.4584 0C26.5542 0 24.3334 2.05833 24.3334 4.75Z" fill="#512C1F"/>
</svg>
