<svg width="25" height="25" viewBox="0 0 25 25" fill="none" xmlns="http://www.w3.org/2000/svg">
<mask id="mask0_223_773" style="mask-type:alpha" maskUnits="userSpaceOnUse" x="0" y="0" width="25" height="25">
<rect width="25" height="25" fill="#D9D9D9"/>
</mask>
<g mask="url(#mask0_223_773)">
<path d="M1.04175 23.9584L3.073 16.9792C2.74314 16.2674 2.49557 15.5382 2.33029 14.7917C2.16571 14.0452 2.08341 13.2813 2.08341 12.5C2.08341 11.0591 2.35703 9.7049 2.90425 8.43754C3.45078 7.17018 4.19279 6.06775 5.13029 5.13025C6.06779 4.19275 7.17022 3.45039 8.43758 2.90317C9.70494 2.35664 11.0591 2.08337 12.5001 2.08337C13.9411 2.08337 15.2952 2.35664 16.5626 2.90317C17.8299 3.45039 18.9324 4.19275 19.8699 5.13025C20.8074 6.06775 21.5494 7.17018 22.0959 8.43754C22.6431 9.7049 22.9167 11.0591 22.9167 12.5C22.9167 13.941 22.6431 15.2952 22.0959 16.5625C21.5494 17.8299 20.8074 18.9323 19.8699 19.8698C18.9324 20.8073 17.8299 21.5493 16.5626 22.0959C15.2952 22.6431 13.9411 22.9167 12.5001 22.9167C11.7188 22.9167 10.9549 22.8341 10.2084 22.6688C9.46189 22.5042 8.73272 22.257 8.02091 21.9271L1.04175 23.9584ZM4.11466 20.8855L7.448 19.8959C7.69105 19.8264 7.93828 19.8004 8.18966 19.8177C8.44175 19.8351 8.68064 19.8959 8.90633 20C9.46189 20.2778 10.0435 20.4862 10.6511 20.625C11.2588 20.7639 11.8751 20.8334 12.5001 20.8334C14.8265 20.8334 16.797 20.0261 18.4115 18.4115C20.0261 16.7969 20.8334 14.8264 20.8334 12.5C20.8334 10.1737 20.0261 8.20317 18.4115 6.58858C16.797 4.974 14.8265 4.16671 12.5001 4.16671C10.1737 4.16671 8.20321 4.974 6.58862 6.58858C4.97404 8.20317 4.16675 10.1737 4.16675 12.5C4.16675 13.125 4.23619 13.7414 4.37508 14.349C4.51397 14.9566 4.7223 15.5382 5.00008 16.0938C5.12161 16.3195 5.18689 16.558 5.19591 16.8094C5.20425 17.0615 5.17369 17.3091 5.10425 17.5521L4.11466 20.8855ZM11.4584 16.6667H13.5417V13.5417H16.6667V11.4584H13.5417V8.33337H11.4584V11.4584H8.33341V13.5417H11.4584V16.6667Z" fill="#1C1B1F"/>
</g>
</svg>
