<svg width="91" height="81" viewBox="0 0 91 81" fill="none" xmlns="http://www.w3.org/2000/svg">
<g filter="url(#filter0_d_231_4)">
<path d="M42.1742 23.5709L56.5129 2.17087C62.7264 3.59754 68.2406 6.21309 73.0557 10.0175C77.868 13.822 81.3667 18.3398 83.5516 23.5709H42.1742ZM30.8057 32.4875L16.7742 11.0875C20.4613 7.93698 24.7465 5.44032 29.6299 3.59754C34.5105 1.75476 39.7844 0.833374 45.4516 0.833374C46.3393 0.833374 47.3635 0.877363 48.5242 0.96534C49.685 1.0557 50.7433 1.16032 51.6992 1.27921L30.8057 32.4875ZM5.81534 45.4167C5.40566 43.99 5.08202 42.5336 4.8444 41.0475C4.60406 39.5614 4.48389 38.0456 4.48389 36.5C4.48389 32.2795 5.2691 28.2967 6.83953 24.5517C8.40996 20.8067 10.629 17.3887 13.4968 14.2975L34.1855 45.4167H5.81534ZM34.4928 70.8292C28.2793 69.4025 22.7487 66.787 17.9008 62.9825C13.053 59.1781 9.53658 54.6603 7.35163 49.4292H48.6266L34.4928 70.8292ZM45.4516 72.1667C44.4274 72.1667 43.3869 72.1073 42.3299 71.9884C41.2702 71.8695 40.2624 71.7506 39.3065 71.6317L60.0976 40.5125L74.1291 61.9125C70.442 65.0631 66.1581 67.5598 61.2775 69.4025C56.3941 71.2453 51.1188 72.1667 45.4516 72.1667ZM77.4065 58.7025L56.7178 27.5834H85.0879C85.4976 29.01 85.8226 30.4664 86.063 31.9525C86.3006 33.4387 86.4194 34.9545 86.4194 36.5C86.4194 40.6611 85.5836 44.6439 83.9122 48.4484C82.2379 52.2528 80.0694 55.6709 77.4065 58.7025Z" fill="#323945"/>
</g>
<defs>
<filter id="filter0_d_231_4" x="0.483887" y="0.833374" width="89.9355" height="79.3334" filterUnits="userSpaceOnUse" color-interpolation-filters="sRGB">
<feFlood flood-opacity="0" result="BackgroundImageFix"/>
<feColorMatrix in="SourceAlpha" type="matrix" values="0 0 0 0 0 0 0 0 0 0 0 0 0 0 0 0 0 0 127 0" result="hardAlpha"/>
<feOffset dy="4"/>
<feGaussianBlur stdDeviation="2"/>
<feComposite in2="hardAlpha" operator="out"/>
<feColorMatrix type="matrix" values="0 0 0 0 0 0 0 0 0 0 0 0 0 0 0 0 0 0 0.25 0"/>
<feBlend mode="normal" in2="BackgroundImageFix" result="effect1_dropShadow_231_4"/>
<feBlend mode="normal" in="SourceGraphic" in2="effect1_dropShadow_231_4" result="shape"/>
</filter>
</defs>
</svg>
