<svg width="112" height="30" viewBox="0 0 112 30" fill="none" xmlns="http://www.w3.org/2000/svg">
<rect width="112" height="30" fill="#D2E5E5"/>
<path d="M12.6502 10.02V20.94H17.9902V23H10.2902V10.02H12.6502ZM19.973 10.02H22.333V18.1C22.333 19.1667 22.603 19.9367 23.143 20.41C23.6897 20.8833 24.3863 21.12 25.233 21.12C26.0863 21.12 26.783 20.8833 27.323 20.41C27.863 19.9367 28.133 19.1667 28.133 18.1V10.02H30.493V18.1C30.493 19.1933 30.283 20.1267 29.863 20.9C29.443 21.6733 28.8397 22.2633 28.053 22.67C27.273 23.0767 26.333 23.28 25.233 23.28C24.133 23.28 23.1897 23.0767 22.403 22.67C21.623 22.2633 21.023 21.6733 20.603 20.9C20.183 20.1267 19.973 19.1933 19.973 18.1V10.02ZM33.9816 10.02H37.3616L41.0216 17.96H40.8216L44.4816 10.02H47.7416V23H45.3616V12.74H45.7216L41.6816 21.58H40.1416L36.1216 12.78H36.3416V23H33.9816V10.02ZM51.4621 23V10.02H53.8221V23H51.4621ZM57.5158 10.02H60.0958L65.9958 19.28H65.8158V10.02H68.1758V23H65.7758L59.4958 13.18H59.8758V23H57.5158V10.02ZM71.8917 23V10.02H74.2517V23H71.8917Z" fill="#323945"/>
<path d="M91.7678 11.375L95.9829 5.375C97.8094 5.775 99.4304 6.50833 100.846 7.575C102.26 8.64167 103.289 9.90833 103.931 11.375H91.7678ZM88.4259 13.875L84.3011 7.875C85.385 6.99167 86.6447 6.29167 88.0802 5.775C89.515 5.25833 91.0653 5 92.7312 5C92.9922 5 93.2933 5.01233 93.6345 5.037C93.9757 5.06233 94.2868 5.09167 94.5678 5.125L88.4259 13.875ZM81.0796 17.5C80.9592 17.1 80.8641 16.6917 80.7942 16.275C80.7236 15.8583 80.6882 15.4333 80.6882 15C80.6882 13.8167 80.9191 12.7 81.3807 11.65C81.8424 10.6 82.4947 9.64167 83.3377 8.775L89.4194 17.5H81.0796ZM89.5097 24.625C87.6832 24.225 86.0574 23.4917 84.6323 22.425C83.2072 21.3583 82.1735 20.0917 81.5312 18.625H93.6646L89.5097 24.625ZM92.7312 25C92.4302 25 92.1243 24.9833 91.8136 24.95C91.5021 24.9167 91.2058 24.8833 90.9248 24.85L97.0366 16.125L101.161 22.125C100.077 23.0083 98.8182 23.7083 97.3835 24.225C95.9479 24.7417 94.3972 25 92.7312 25ZM102.125 21.225L96.0431 12.5H104.383C104.503 12.9 104.599 13.3083 104.669 13.725C104.739 14.1417 104.774 14.5667 104.774 15C104.774 16.1667 104.529 17.2833 104.037 18.35C103.545 19.4167 102.908 20.375 102.125 21.225Z" fill="#323945"/>
</svg>
